<?xml version="1.0" encoding="UTF-8"?><svg width="100" height="100" version="1.1" viewBox="36 74 100 100" xmlns="http://www.w3.org/2000/svg"><g><path d="m89 169c-0.7-0.44-0.68 0.012-0.72-13-0.021-6.4-0.052-12-0.068-12l-0.03-0.58-0.57 1.2c-1.2 2.4-1.6 3-2.2 3.3-0.65 0.32-1.1 0.25-1.7-0.23-0.83-0.7-1.1-1.9-0.68-2.8 0.12-0.23 0.49-0.82 0.82-1.3 0.89-1.3 2.2-3.9 2.1-4.1-0.054-0.088-0.038-0.12 0.038-0.07 0.22 0.13 1.3-2.4 3.6-8.3 0.67-1.7 1.5-2.2 3-1.7 0.43 0.15 0.68 0.33 0.88 0.66 0.43 0.7 0.29 1.7-0.59 3.9-0.4 1-0.69 1.9-0.66 1.9 0.038 0.038 0.068 0.015 0.068-0.05-5.4e-5 -0.07 1.4-0.1 3.4-0.082 3.1 0.034 3.4 0.021 3.4-0.19 0.081-0.27 0.52-2.5 0.73-3.7 0.2-1.1 0.42-1.5 1.1-1.8 0.63-0.32 1.4-0.27 2.3 0.16 1 0.47 1.1 1.2 0.43 3.6-0.25 0.86-0.45 1.6-0.45 1.7 0 0.13 0.46 0.17 2 0.17 1.1 0 2.1 0.056 2.3 0.12 0.53 0.2 0.79 0.73 0.79 1.6 2e-3 0.9-0.23 1.6-0.63 1.8-0.17 0.097-1.2 0.17-2.8 0.2-1.6 0.032-2.6 0.1-2.6 0.19-0.048 0.077-0.1 1.2-0.12 2.5-0.016 1.3-0.035 2.6-0.042 2.9l-0.014 0.52 1.9 0.028c2.3 0.035 2.7 0.14 3 0.86 0.28 0.62 0.31 1 0.1 1.9-0.21 0.85-0.53 0.95-2.9 0.95h-1.9l-0.083 1.1c-0.046 0.59-0.083 1.9-0.084 3l-4.9e-4 1.9 2.3 0.026c2.2 0.024 2.4 0.04 2.7 0.31 0.6 0.57 0.72 1.9 0.22 2.7-0.13 0.19-0.22 0.4-0.2 0.46 0.018 0.059-0.028 0.07-0.1 0.025-0.073-0.045-0.13-0.035-0.13 0.023s-1.1 0.088-2.4 0.067l-2.4-0.038 5e-3 3.3 4e-3 3.3 0.52-8e-3c0.28-5e-3 0.84-0.02 1.2-0.034 0.88-0.032 4.2 0.1 4.7 0.19 0.53 0.086 0.89 0.55 1 1.3 0.13 0.85-0.11 1.6-0.61 1.9-0.4 0.24-0.72 0.25-9.9 0.25-8.6-2e-3 -9.5-0.023-9.9-0.22zm3.3-3.4c-0.063-0.1-0.035-0.11 0.089-0.037 0.25 0.16 2.4 0.2 2.8 0.057 0.19-0.071 0.34-0.072 0.39-2e-3 0.04 0.064 0.66 0.12 1.4 0.12l1.3 4e-3 -0.078-3.1c-0.043-1.7-0.079-3.2-0.081-3.3-0.0037-0.21-0.24-0.23-3.1-0.23h-3.1l0.084 2c0.046 1.1 0.085 2.6 0.085 3.3 3.5e-4 1.1 0.033 1.3 0.2 1.3 0.12 0 0.16-0.061 0.11-0.15zm5.4-10 0.36-0.018v-2.8c0-2.6-0.015-2.8-0.23-2.8-0.18 0.063-0.18 0.039 0.032-0.13 0.24-0.19 0.045-0.21-2.6-0.23-1.6-0.014-3-0.03-3.1-0.036-0.21-0.01-0.23 0.22-0.23 3l-0.0055 3 0.39 0.065c0.34 0.056 4.4 0.069 5.4 0.018zm-1.1-9.6c0.13-0.13 1.4-0.13 1.3-6.1e-4 -0.033 0.054-6e-3 0.098 0.06 0.098 0.15 0 0.27-1.6 0.31-4.2l0.034-1.9-6.4-0.069v5.9l0.42 0.068c0.23 0.037 1.2 0.055 2.3 0.038 1-0.016 1.8 0.014 1.8 0.067-0.033 0.053-0.0082 0.097 0.055 0.097 0.064 0 0.16-0.044 0.21-0.097zm-25 22c-0.52-0.32-0.9-0.94-1.1-1.9-0.17-0.64-0.17-0.81-0.021-1.2 0.25-0.58 0.7-0.95 1.6-1.3 0.46-0.18 0.75-0.37 0.73-0.47-0.021-0.093 0.02-0.2 0.092-0.25 0.27-0.16 1.8-6.2 2.9-12 0.83-4 1.2-4.7 2.4-4.7 0.64-9e-3 1.7 0.53 2 1 0.47 0.71 0.31 1.5-1.9 10-0.17 0.64-0.55 2.1-0.84 3.2-0.29 1.1-0.56 2.2-0.59 2.3-0.047 0.16 0.38 0.083 2.2-0.41 2.2-0.6 2.7-0.75 2.7-0.83 0-0.022-0.11-0.29-0.24-0.6-0.57-1.3-1.6-4.2-1.6-4.6 0-0.81 0.64-1.2 1.9-1.2 1.2 0 1.1-0.24 3.2 5.2 1.9 5 2 5.2 1.7 5.9-0.24 0.57-0.78 0.87-1.6 0.87-0.52 0-0.66-0.061-1-0.43-0.22-0.24-0.54-0.79-0.71-1.2-0.23-0.59-0.36-0.78-0.52-0.74-2.8 0.79-7.2 2.1-8.5 2.6-1.5 0.52-2 0.56-2.5 0.21zm-5.8-0.15c-0.13-0.073-0.29-0.091-0.38-0.041-0.086 0.053-0.11 0.035-0.064-0.044 0.082-0.13-0.26-0.36-0.47-0.31-0.059 0.013-0.076-0.026-0.039-0.086 0.037-0.06-0.052-0.31-0.2-0.55-0.15-0.25-0.27-0.69-0.28-1-0.016-0.5 0.086-0.76 0.69-1.8 2.5-4.1 4.5-9.8 5.6-16 0.63-3.4 1.3-8.8 1.1-9-0.05-0.05-1.4-0.096-2.9-0.1-1.5-7e-3 -2.9-0.056-3-0.11-0.63-0.3-0.89-1.9-0.47-2.8 0.34-0.79 0.68-0.87 3.9-0.87h2.8l0.043-2.2c0.036-1.9 0.08-2.3 0.27-2.6 0.46-0.67 1.8-0.95 2.7-0.58 1 0.39 1.1 0.82 0.97 3.4-0.099 1.4-0.091 1.8 0.039 1.9 0.09 0.056 1.7 0.11 3.6 0.11 3.8 0.01 3.9 0.023 4.2 0.88 0.21 0.49 0.17 1.5-0.078 2.1-0.28 0.73-0.45 0.76-4.4 0.77l-3.6 0.01-0.23 1.8c-0.13 1-0.28 2.1-0.34 2.5-0.063 0.39-0.18 1.1-0.26 1.6-1.2 7.3-3.2 14-5.9 19-1 2-1.4 2.7-1.8 3-0.36 0.31-1.1 0.38-1.5 0.16zm58-4c-0.32-0.056-1.1-0.31-1.7-0.57-0.6-0.26-1.2-0.44-1.3-0.4-0.098 0.038-0.15 0.019-0.11-0.041 0.037-0.06-0.7-0.42-1.6-0.79-0.94-0.38-1.9-0.8-2.2-0.93-0.87-0.43-1-1.4-0.38-2.1 0.52-0.52 1.1-0.44 3.3 0.5 1.1 0.45 2.6 1 3.3 1.3 1.5 0.56 1.8 0.83 2 1.5 0.093 0.5-0.2 1.3-0.53 1.4-0.11 0.041-0.16 0.13-0.12 0.19 0.039 0.064 0.054 0.11 0.032 0.1-0.022-8e-3 -0.3-0.061-0.62-0.12zm-77-0.096c-0.72-0.51-0.93-1.6-0.41-2.1 0.17-0.16 1.6-0.8 3.2-1.4 1.6-0.63 2.9-1.2 3-1.3 0.043-0.058 0.14-0.11 0.21-0.11 0.071-4e-3 0.35-0.054 0.61-0.11 0.81-0.17 1.3-0.01 1.6 0.51 0.27 0.57 0.27 0.89 6.1e-4 1.4-0.23 0.39-0.27 0.41-2.8 1.4-0.89 0.35-2.3 0.91-3 1.2-1.4 0.56-2 0.71-2.3 0.5zm-0.84-9c-1.5-0.079-1.7-0.14-1.9-0.59-0.36-0.79-0.02-1.7 0.73-1.8 0.27-0.068 2.3-0.11 4.6-0.1 3.5 0.019 4.1 0.052 4.3 0.22 0.78 0.78 0.6 2-0.32 2.3-0.4 0.1-5.7 0.14-7.3 0.054zm72 0.036c-0.76-0.043-1.2-0.24-1.3-0.57-0.042-0.13-0.12-0.21-0.17-0.18-0.14 0.088-0.081-0.73 0.076-1 0.077-0.14 0.27-0.38 0.42-0.52 0.27-0.25 0.47-0.26 4.7-0.26h4.5l0.31 0.39c0.51 0.64 0.31 1.9-0.34 2.1-0.27 0.085-7 0.16-8.2 0.094zm-65-6.2c-0.033-0.033-0.61-0.26-1.3-0.51-0.67-0.24-2.1-0.77-3.1-1.2-1-0.4-2.4-0.93-3.1-1.2-1.7-0.64-2.3-1.3-1.8-2.3 0.16-0.35 0.75-0.74 1.1-0.74 0.14 0 1.6 0.53 3.3 1.2 1.7 0.65 3.7 1.4 4.5 1.7 1.3 0.48 1.7 0.7 2.2 1.3 0.23 0.27-0.0064 1.2-0.39 1.5-0.31 0.27-1.2 0.42-1.4 0.23zm63-0.12c-0.58-0.32-0.82-1.1-0.52-1.8 0.19-0.41 0.71-0.69 2.6-1.4 0.89-0.32 1.8-0.65 2-0.75 1.4-0.61 4.6-1.8 5-1.8 0.4-0.054 0.55 5.8e-4 0.92 0.33 0.38 0.34 0.44 0.48 0.44 0.97 0 0.37-0.082 0.67-0.23 0.83-0.12 0.14-0.18 0.3-0.13 0.36 0.054 0.059 0.034 0.071-0.044 0.027-0.078-0.044-1.1 0.3-2.3 0.77-1.2 0.46-2.5 0.95-2.8 1.1-0.36 0.13-1.4 0.53-2.3 0.9-1.8 0.7-2 0.75-2.5 0.48zm-61-8.6c-0.4-0.14-2-0.98-2.4-1.2-0.2-0.14-0.42-0.21-0.51-0.16-0.086 0.053-0.12 0.037-0.069-0.038 0.11-0.18-0.91-0.98-1.1-0.87-0.093 0.057-0.11 0.034-0.054-0.061 0.057-0.091-0.14-0.39-0.5-0.76-2.3-2.3-3.3-5.9-2.7-9.3 0.53-3 1.9-5.8 5.3-10 0.61-0.83 1.1-1.5 1-1.6-0.034-0.034 0.05-0.18 0.19-0.33 0.27-0.29 0.82-1.8 1-2.9 0.071-0.36 0.48-2.5 0.91-4.7 1.5-7.8 2.3-11 3.2-14l0.2-0.65-0.57-0.84c-0.59-0.87-1.2-2.1-1.2-2.4-6.1e-4 -0.093-0.045-0.14-0.098-0.11-0.053 0.033-0.1-0.095-0.11-0.28-0.0091-0.19-0.06-0.84-0.11-1.4-0.16-1.8 0.46-4.1 1.5-5.5 0.55-0.74 1.9-1.9 2.7-2.4 0.49-0.29 0.73-0.5 0.63-0.55-0.093-0.042-0.048-0.047 0.1-0.011 0.15 0.036 0.52-0.022 0.82-0.13 2.8-0.98 6.3 0.46 8.3 3.4l0.61 0.89 1.3-0.44c1.3-0.43 3.9-1 6.5-1.4 0.98-0.16 2.3-0.22 5.1-0.23 2.1-0.01 3.8 0.022 3.8 0.071-0.031 0.049 0.37 0.13 0.88 0.18 1.6 0.15 4.6 0.8 6.2 1.4 0.62 0.22 1.2 0.39 1.2 0.39 0.023 0 0.31-0.39 0.64-0.87 1.5-2.2 4-3.6 6.4-3.6 0.92 0.0043 1.4 0.074 2.6 0.38 0.26 0.065 0.85 0.36 1.3 0.66 0.31 0.19 0.63 0.35 0.71 0.35 0.085 0 0.15 0.034 0.14 0.075-0.01 0.041 0.39 0.49 0.9 1 1.1 1.1 1.9 2.5 2.2 4.2 0.48 2.4-0.082 4.6-1.7 6.8l-0.31 0.41 0.6 2c1 3.3 1.9 7 2.9 13 1.1 5.5 1.3 6.5 1.8 7.5 0.37 0.74 1.7 2.7 1.8 2.6 0.027-0.015 0.038-7e-3 0.025 0.018-0.059 0.11 2.1 3.1 2.2 3 0.07-0.02 0.096 0.016 0.057 0.08-0.1 0.16 1 2.1 1.2 2 0.057-0.052 0.066-0.028 0.02 0.053-0.046 0.081 0.11 0.58 0.35 1.1 1 2.2 1.4 3.9 1.4 6.1-0.013 4-2.6 7.7-6.9 9.7-1.2 0.58-1.6 0.62-2.1 0.26-0.18-0.14-0.35-0.23-0.38-0.2-0.073 0.073-0.15-0.54-0.14-1.1 0.015-0.57 0.26-0.82 1.2-1.3 1.1-0.47 1.8-0.96 1.7-1.1-0.049-0.079-0.019-0.094 0.073-0.038 0.22 0.13 1.5-0.86 2.2-1.7 0.71-0.87 1.4-2.2 1.6-3.2 0.26-1.3 0.095-3-0.45-4.6-0.69-2.1-1.9-4.1-4.7-8.1-2.1-3-2.2-3.1-3.4-9.1-1.1-5.7-1.1-5.6-1.9-8.8-0.39-1.6-0.77-2.9-0.83-2.9-0.063 0.039-0.082-0.015-0.042-0.12 0.077-0.2-0.22-1.3-0.86-3.3-0.21-0.65-0.38-1.5-0.38-1.8 0-0.53 0.086-0.72 0.66-1.5 0.37-0.49 0.85-1.3 1.1-1.7 0.36-0.76 0.4-0.96 0.4-2.1 0-0.88-0.067-1.4-0.24-1.8-0.28-0.72-1.3-2.2-1.5-2.1-0.062 0.038-0.14-0.013-0.18-0.11-0.22-0.58-2.6-1.3-3.6-1.2-1.9 0.29-3.4 1.5-4.4 3.5-0.67 1.3-1.1 1.5-2.4 1-0.44-0.18-0.85-0.29-0.91-0.25-0.062 0.038-0.11 0.016-0.11-0.051 0-0.27-3.3-1.1-6.1-1.5-2.2-0.33-7.7-0.33-10 5.8e-4 -2.9 0.43-5.5 1.1-7.3 1.9-0.75 0.32-1.4 0.29-1.8-0.099-0.15-0.12-0.5-0.66-0.77-1.2-0.27-0.53-0.56-0.96-0.63-0.94-0.078 0.017-0.11-0.048-0.075-0.14 0.11-0.27-1.4-1.6-2.2-1.9-1-0.39-1.7-0.45-2.7-0.22-2.5 0.59-4.2 3.2-3.8 5.9 0.14 1 0.55 1.9 1.3 2.9 0.68 0.91 0.92 1.5 0.81 2-0.047 0.22-0.34 1.3-0.65 2.3-0.31 1.1-0.65 2.3-0.75 2.8-0.1 0.46-0.37 1.7-0.6 2.7-0.23 1-0.91 4.3-1.5 7.2-0.6 3-1.2 5.8-1.3 6.2-0.28 1.1-0.71 2-1.5 3.1-0.37 0.54-0.63 1-0.59 1.1 0.044 0.071 0.011 0.11-0.074 0.094-0.28-0.065-3.1 4.2-4.1 6.2-0.23 0.45-0.59 1.3-0.82 2-0.37 1.1-0.41 1.3-0.42 2.7-0.0073 1.8 0.27 2.9 1.1 4.2 0.99 1.6 1.9 2.5 3.9 3.6 1.1 0.58 1.2 0.7 1.4 1.2 0.19 0.59 0.14 0.92-0.24 1.4-0.27 0.34-0.77 0.44-1.3 0.25zm28-13c-0.96-0.52-2.4-1.4-3.3-1.8-0.85-0.49-2.7-1.6-4.2-2.4-1.5-0.82-2.7-1.6-2.8-1.7-0.62-0.61-0.34-1.9 0.49-2.2 0.51-0.21 0.66-0.17 4.3 1.3 1.6 0.64 4 1.6 5.3 2.1l2.4 0.97 0.67-0.22c0.37-0.12 1-0.38 1.5-0.57 0.46-0.2 2.3-0.99 4.2-1.8 1.8-0.77 3.3-1.4 3.2-1.5-0.079-0.049 0.02-0.092 0.22-0.094 0.2-2e-3 0.7-0.1 1.1-0.22 0.68-0.2 0.77-0.2 1.1-4e-3 0.89 0.46 0.93 1.7 0.081 2.3-0.34 0.25-5.2 3.1-7.4 4.3-0.3 0.17-1.4 0.75-2.4 1.3-2.4 1.4-2.4 1.4-4.6 0.16zm0.45-13c-1-0.2-2.4-0.71-3.1-1.2-0.27-0.18-0.53-0.33-0.58-0.35-0.31-0.1-1.7-1.8-2-2.6-2-4.1-0.33-9 3.6-11 0.59-0.28 1.3-0.55 1.6-0.6 0.27-0.048 0.46-0.13 0.43-0.18-0.03-0.048 0.71-0.076 1.7-0.061 1.3 0.02 1.9 0.093 2.6 0.28 2.7 0.81 4.8 2.8 5.6 5.4 0.43 1.3 0.49 3.3 0.12 4.5-1 3.5-3.9 5.6-7.6 5.8-0.82 0.038-1.7-5e-3 -2.2-0.12zm3.6-2.9c1.5-0.46 2.6-1.4 3.3-2.8 0.39-0.8 0.42-0.94 0.42-2.2 0-1.3-0.031-1.4-0.41-2.2-0.43-0.9-1.3-2-1.5-1.9-0.063 0.039-0.12-0.011-0.12-0.11 0-0.26-1.5-0.96-2.5-1.2-1.2-0.26-2.5-0.092-3.7 0.48-2.6 1.2-3.8 4.6-2.5 7.3 0.6 1.2 1.9 2.3 3.1 2.6l0.43 0.089-0.03-4.8-0.46-0.075c-0.69-0.11-1.1-0.53-1.1-1.2 0-0.84 0.43-1.2 1.4-1.2 2.8-0.066 3.4-0.024 3.8 0.24 0.98 0.74 0.45 2.2-0.8 2.2h-0.29l0.028 2.3c0.033 2.7 0.028 2.6 0.16 2.6 0.058 0 0.4-0.088 0.76-0.19zm-15-12c-0.46-0.28-0.68-0.62-0.68-1 0-0.39 0.48-1.3 0.99-1.9 0.23-0.27 0.38-0.54 0.33-0.59-0.051-0.056-0.028-0.066 0.05-0.021 0.078 0.045 0.33-0.057 0.56-0.22 0.23-0.17 0.37-0.33 0.31-0.36-0.057-0.031-0.033-0.039 0.054-0.018 0.087 0.021 0.36-0.047 0.61-0.15 0.6-0.25 2.1-0.24 2.9 0.02 0.78 0.25 1.8 1 2.1 1.5 0.49 1-0.92 2.2-1.9 1.6-0.85-0.6-1.3-0.75-1.9-0.68-0.77 0.11-1.1 0.34-1.6 1.2-0.25 0.39-0.52 0.73-0.61 0.76-0.59 0.18-0.85 0.17-1.2-0.059zm26 0.13c-0.15-0.063-0.39-0.27-0.52-0.46-1.2-1.7-2-2-3.4-1.1-0.53 0.34-0.73 0.4-1.1 0.34-0.58-0.093-0.9-0.37-1.1-0.95-0.21-0.63 0.034-1.1 0.8-1.6 0.34-0.23 0.58-0.47 0.53-0.53-0.053-0.059-0.028-0.067 0.056-0.019 0.084 0.048 0.43-0.0064 0.77-0.12 0.89-0.3 2.2-0.2 3.2 0.24 1.4 0.64 2.9 2.6 2.6 3.4-0.2 0.57-1.3 1-1.8 0.81z"/></g></svg>
