<svg id="榻" viewBox="0 0 2048 2048" xmlns="http://www.w3.org/2000/svg">
<g fill="#ff6699" fill-opacity="1" stroke="#000000" stroke-width="0" stroke-linejoin="round" stroke-opacity="0">
<path d="M547 804 L380 832 Q351 837 311 835.5 Q271 834 252 827.5 Q233 821 219 807.5 Q205 794 207 783 Q209 772 233 768 L302 757 Q319 755 388.5 745 Q458 735 483 727 L566 704 L664 679 L713 659 Q754 643 761.5 641 Q769 639 788 642 Q805 645 839 659 Q873 673 880 686.5 Q887 700 883 710 Q879 719 853.5 730.5 Q828 742 769 755 L698 771 L659 780 L547 804 Z" id="t1"></path>
<path d="M647 966 L643 1138 L640 1571 Q639 1647 635.5 1665.5 Q632 1684 626.5 1699 Q621 1714 610 1736 Q599 1758 587 1771.5 Q575 1785 567 1786 Q559 1787 547 1772 Q536 1761 529 1740 L518 1709 Q503 1668 498.5 1651.5 Q494 1635 496 1612 Q496 1597 504 1561.5 Q512 1526 517.5 1490.5 Q523 1455 531 1392 Q539 1329 540 1324 L552 1065 L566 704 L568 542 Q568 483 564.5 429 Q561 375 554 342 Q547 309 539.5 284.5 Q532 260 525 243.5 Q518 227 521.5 218.5 Q525 210 547 206 Q563 204 594 215 Q625 226 647.5 239 Q670 252 689.5 272 Q709 292 711 306 Q713 320 697 362 Q689 381 683.5 410 Q678 439 672.5 497.5 Q667 556 666 615 L664 679 L659 780 L649 921 L647 966 Z" id="t2"></path>
<path d="M552 1065 Q507 1143 470.5 1197 Q434 1251 384 1301.5 Q334 1352 275.5 1396 Q217 1440 193 1450 L162 1463 Q145 1470 140 1462.5 Q135 1455 146 1444 L168 1424 Q191 1403 236 1355 Q281 1307 320.5 1254 Q360 1201 399.5 1132 Q439 1063 473 988.5 Q507 914 527 859 L547 804 Q673.5 741.5 552 1065 Z" id="t3"></path>
<path d="M649 921 Q685 935 702.5 944 Q720 953 744.5 971 Q769 989 784 1009 Q799 1029 806.5 1049 Q814 1069 806.5 1094.5 Q799 1120 783.5 1126 Q768 1132 753 1124.5 Q738 1117 713 1072.5 Q688 1028 686 1024 L647 966 L649 921 Z" id="t4"></path>
</g>
<g fill="#56B4E9" fill-opacity="1" stroke="#000000" stroke-width="0" stroke-linejoin="round" stroke-opacity="0">
<path d="M1069 412 L1091 788 L1092 802 Q1092 812 1086 840 Q1082 854 1077.5 866 Q1073 878 1063.5 880 Q1054 882 1044 874 Q1036 869 1026 852 Q1016 835 1009 815 Q1002 795 997 746 L969 503 Q964 467 961 450.5 Q958 434 948 413 Q938 392 924 370.5 Q910 349 913.5 339 Q917 329 933 324 Q944 321 975.5 327.5 Q1007 334 1009 334 L1037 345 Q1077 359.5 1069 412 Z" id="t5"></path>
<path d="M1037 345 Q1073 342 1092 339 L1278 306 L1453 281 L1506 273 Q1553 267 1592.5 256.5 Q1632 246 1637 245 Q1656 244 1673.5 249.5 Q1691 255 1734 277.5 Q1777 300 1802 325 Q1827 350 1824 367 Q1822 375 1808.5 393 Q1795 411 1778 444.5 Q1761 478 1752 499.5 Q1743 521 1735 549 L1679 746 Q1665 793 1650.5 810 Q1636 827 1624.5 832 Q1613 837 1599 837.5 Q1585 838 1576 830 Q1572 827 1565 816.5 Q1558 806 1564.5 765.5 Q1571 725 1573 710 L1609 426 L1615 384 Q1615 357 1603.5 347.5 Q1592 338 1568 337 Q1524 336 1454 345 Q1384 354 1284 369 Q1184 384 1139 395 L1069 412 L1037 345 Z" id="t6"></path>
<path d="M1223 551 Q1264 543 1281.5 538 Q1299 533 1335.5 520.5 Q1372 508 1389 507 Q1397 507 1433.5 513 Q1470 519 1484 530.5 Q1498 542 1498 551 Q1496 562 1481 568 Q1466 574 1412 585 L1325 604 Q1280 614 1267 614.5 Q1254 615 1241 612.5 Q1228 610 1199 599 Q1170 588 1171.5 574 Q1173 560 1195 556 L1223 551 Z" id="t7"></path>
<path d="M1229 737 Q1269 729 1288.5 723.5 Q1308 718 1339 707.5 Q1370 697 1386 696 Q1395 696 1431 702 Q1467 708 1482 719.5 Q1497 731 1496 740 Q1494 750 1474.5 757.5 Q1455 765 1409 774 L1331 790 Q1277 802 1269 801.5 Q1261 801 1247 798 Q1233 795 1204.5 785 Q1176 775 1177.5 760.5 Q1179 746 1200 742 L1229 737 Z" id="t8"></path>
</g>
<g fill="#009E73" fill-opacity="1" stroke="#000000" stroke-width="0" stroke-linejoin="round" stroke-opacity="0">
<path d="M985 1661 L961 1635 Q954 1628 959 1621.5 Q964 1615 978 1621 L997 1630 L1050 1654 Q1080 1671 1092.5 1671.5 Q1105 1672 1113 1665 Q1116 1662 1121.5 1650.5 Q1127 1639 1131.5 1624 Q1136 1609 1138 1581 Q1140 1553 1144.5 1477 Q1149 1401 1150 1358 L1148 1235 L1148 1166 Q1148 1141 1144.5 1098 Q1141 1055 1132 1046 Q1123 1037 1095 1038 Q1073 1039 1046.5 1045.5 Q1020 1052 1002 1058.5 Q984 1065 954.5 1080 Q925 1095 914 1094 Q896 1094 880.5 1082 Q865 1070 852.5 1054 Q840 1038 845 1032.5 Q850 1027 867 1024 L914 1018 Q928 1017 947.5 1010.5 Q967 1004 1020 988.5 Q1073 973 1103 957 Q1133 941 1144 940 Q1157 939 1179 947 Q1201 955 1220 967 Q1239 979 1262.5 1000.5 Q1286 1022 1286.5 1031 Q1287 1040 1265 1077 Q1255 1094 1249 1131 Q1243 1168 1243 1191 L1242 1243 Q1240 1319 1238.5 1398 Q1237 1477 1240.5 1552.5 Q1244 1628 1243 1651 Q1238 1721 1216.5 1757 Q1195 1793 1169 1814.5 Q1143 1836 1131 1835 Q1117 1835 1096 1807.5 Q1075 1780 1069 1771 L1022 1705 Q1005 1683 985 1661 Z" id="t9"></path>
<path d="M852 1212 L837 1192 Q829 1182 833 1172 Q837 1162 850 1164 L886 1170 Q902 1173 929.5 1182 Q957 1191 975.5 1202.5 Q994 1214 1004.5 1231.5 Q1015 1249 1016 1274.5 Q1017 1300 1004 1318.5 Q991 1337 977 1339.5 Q963 1342 944 1328 Q926 1317 909.5 1294.5 Q893 1272 875 1246 Q857 1220 852 1212 Z" id="t10"></path>
<path d="M1016 1384 L1056 1363 Q1078 1352 1084 1361 Q1090 1370 1079 1381 L1050 1410 L993 1468 Q959 1502 921 1534.5 Q883 1567 867.5 1584.5 Q852 1602 840 1606 Q828 1610 803 1594 Q783 1583 756.5 1550.5 Q730 1518 729.5 1508.5 Q729 1499 732 1496 Q734 1493 745 1491.5 Q756 1490 781 1482 L833 1468 Q861 1460 895.5 1445.5 Q930 1431 960 1415 L1016 1384 Z" id="t11"></path>
<path d="M1556 1654 L1537 1637 Q1521 1623 1527.5 1614 Q1534 1605 1552 1612 L1580 1624 L1618 1641 Q1635 1649 1662.5 1658 Q1690 1667 1704 1662 Q1721 1656 1730.5 1634.5 Q1740 1613 1743.5 1566.5 Q1747 1520 1748.5 1475 Q1750 1430 1750 1371 L1750 1083 Q1750 1046 1748.5 1021 Q1747 996 1740 985 Q1733 974 1718 968 Q1700 962 1654 971 L1609 979 Q1599 982 1543 998.5 Q1487 1015 1467.5 1022.5 Q1448 1030 1438 1030 Q1432 1031 1426 1029.5 Q1420 1028 1400 1016 Q1380 1004 1373 992.5 Q1366 981 1368 973 Q1370 965 1398 960 L1479 946 Q1497 943 1556 926 L1634 904 Q1663 895 1692.5 883 Q1722 871 1737 866 Q1752 861 1771 863 Q1789 866 1830.5 890.5 Q1872 915 1889 934.5 Q1906 954 1906.5 968 Q1907 982 1888 1013 Q1874 1035 1868.5 1052 Q1863 1069 1859.5 1098 Q1856 1127 1857 1160 L1860 1497 L1863 1615 Q1862 1660 1854 1694 Q1846 1728 1826.5 1761 Q1807 1794 1787 1814 Q1767 1834 1750 1840 Q1733 1846 1726 1844 Q1714 1842 1695 1814.5 Q1676 1787 1662 1769 L1598 1699 Q1564 1662 1556 1654 Z" id="t12"></path>
<path d="M1418 1090 L1439 1094 Q1466 1100 1486.5 1107 Q1507 1114 1534 1127 Q1561 1140 1573 1155.5 Q1585 1171 1588.5 1204.5 Q1592 1238 1581 1259 Q1570 1280 1551 1282.5 Q1532 1285 1507 1263 Q1487 1248 1462.5 1217 Q1438 1186 1428 1169 L1411 1143 L1395 1119 Q1383 1102 1386.5 1096.5 Q1390 1091 1396 1089.5 Q1402 1088 1418 1090 Z" id="t13"></path>
<path d="M1613 1316 L1666 1282 Q1681 1272 1689.5 1282 Q1698 1292 1684 1307 L1649 1344 L1613 1386 Q1596 1406 1547.5 1453.5 Q1499 1501 1483 1520.5 Q1467 1540 1454 1556.5 Q1441 1573 1430.5 1578.5 Q1420 1584 1389 1561 Q1375 1552 1354 1528 Q1333 1504 1319.5 1488.5 Q1306 1473 1309 1461 Q1311 1453 1318 1448.5 Q1325 1444 1345.5 1441 Q1366 1438 1411 1420.5 Q1456 1403 1478 1391.5 Q1500 1380 1550 1352 Q1600 1324 1613 1316 Z" id="t14"></path>
</g>
<g fill="#F0E442" fill-opacity="1" stroke="#000000" stroke-width="0" stroke-linejoin="round" stroke-opacity="0">
<path d="M1613 1316 L1666 1282 Q1681 1272 1689.5 1282 Q1698 1292 1684 1307 L1649 1344 L1613 1386 Q1596 1406 1547.5 1453.5 Q1499 1501 1483 1520.5 Q1467 1540 1454 1556.5 Q1441 1573 1430.5 1578.5 Q1420 1584 1389 1561 Q1375 1552 1354 1528 Q1333 1504 1319.5 1488.5 Q1306 1473 1309 1461 Q1311 1453 1318 1448.5 Q1325 1444 1345.5 1441 Q1366 1438 1411 1420.5 Q1456 1403 1478 1391.5 Q1500 1380 1550 1352 Q1600 1324 1613 1316 Z" id="t15"></path>
</g>
<text class="number" style="font-size:100px;font-style:bold;" x="237" y="800">1</text>
<text class="number" style="font-size:100px;font-style:bold;" x="618" y="243">2</text>
<text class="number" style="font-size:100px;font-style:bold;" x="595" y="828">3</text>
<text class="number" style="font-size:100px;font-style:bold;" x="658" y="950">4</text>
<text class="number" style="font-size:100px;font-style:bold;" x="986" y="343">5</text>
<text class="number" style="font-size:100px;font-style:bold;" x="1044" y="351">6</text>
<text class="number" style="font-size:100px;font-style:bold;" x="1187" y="582">7</text>
<text class="number" style="font-size:100px;font-style:bold;" x="1193" y="771">8</text>
<text class="number" style="font-size:100px;font-style:bold;" x="868" y="1043">9</text>
<text class="number" style="font-size:100px;font-style:bold;" x="846" y="1181">10</text>
<text class="number" style="font-size:100px;font-style:bold;" x="787" y="1554">11</text>
<text class="number" style="font-size:100px;font-style:bold;" x="1396" y="996">12</text>
<text class="number" style="font-size:100px;font-style:bold;" x="1393" y="1097">13</text>
<text class="number" style="font-size:100px;font-style:bold;" x="1366" y="1530">14</text>
<text class="number" style="font-size:100px;font-style:bold;" x="1365" y="1540">15</text>

<circle cx="0" cy="0" r="120" style="fill:#ff0000a0;"><animateMotion path="M237 800 L832 670 M618 243 L603 991 L572 1768 M595 828 L410 1207 L152 1456 M658 950 L782 1106 M986 343 L1064 863 M1044 351 L1635 243 L1776 323 L1698 477 L1598 825 M1187 582 L1479 541 M1193 771 L1463 716 M868 1043 L1150 952 L1263 1006 L1208 1183 L1192 1847 L966 1627 M846 1181 L1003 1306 M787 1554 L1077 1365 M1396 996 L1748 870 L1873 939 L1815 1108 L1831 1848 L1538 1619 M1393 1097 L1578 1255 M1366 1530 L1683 1288 M1365 1540 L1670 1295" begin="0s" dur="20s" repeatCount="indefinite"></animateMotion></circle>
</svg>