<svg id="å«" viewBox="0 0 2048 2048" xmlns="http://www.w3.org/2000/svg">
<g fill="#ff6699" fill-opacity="1" stroke="#000000" stroke-width="0" stroke-linejoin="round" stroke-opacity="0">
<path d="M482 1129 Q482 1154 482.5 1167.5 Q483 1181 482 1191 Q479 1213 470.5 1223 Q462 1233 454 1233.5 Q446 1234 435.5 1225.5 Q425 1217 414 1193.5 Q403 1170 397 1116 L367 849 Q362 811 350.5 765 Q339 719 326 696 L297 651 Q291 636 295 626 Q296 624 300 618.5 Q304 613 324 614 L374 627 L433 641 Q446 667 443 703 L479 1060 L482 1129 Z" id="t1"></path>
<path d="M433 641 Q490 633 536 624 Q582 615 630.5 600 Q679 585 700 575 L759 545 Q781 536 796 535 Q807 535 833.5 544.5 Q860 554 874.5 562 Q889 570 914 590 Q939 610 941.5 624.5 Q944 639 918 674 Q892 708 879 736.5 Q866 765 851 822 L796 1030 Q738.5 1074 697 1028 L742 797 L758 691 Q763 667 760 658 Q757 649 748 642 Q739 635 694 649 Q683 653 653 660 Q623 667 562.5 684 Q502 701 486 701 L443 703 L433 641 Z" id="t2"></path>
<path d="M796 1030 Q813 1041 821 1047.5 Q829 1054 840.5 1068 Q852 1082 851 1089 Q849 1098 799 1103.5 Q749 1109 739 1109 L643 1116 L482 1129 L479 1060 L697 1028 L796 1030 Z" id="t3"></path>
</g>
<g fill="#56B4E9" fill-opacity="1" stroke="#000000" stroke-width="0" stroke-linejoin="round" stroke-opacity="0">
<path d="M1570 983 Q1440 1018 1374.5 1038 Q1309 1058 1272.5 1073 Q1236 1088 1219 1099 Q1202 1110 1190 1122 L1159 1152 Q1141 1167 1127 1167 Q1114 1168 1103.5 1160.5 Q1093 1153 1079 1135 Q1065 1117 1060 1109 Q1055 1101 1045 1079 Q1035 1057 1036 1042 Q1036 1028 1045 1011 L1068 976 Q1081 955 1091 922 Q1101 889 1106 868 Q1111 847 1124.5 759 Q1138 671 1142 631.5 Q1146 592 1147 548 Q1147 509 1135.5 475 Q1124 441 1126 432 Q1128 421 1133.5 416.5 Q1139 412 1149 411 Q1166 411 1195 425.5 Q1224 440 1250 459.5 Q1276 479 1289 496 Q1302 513 1302.5 525 Q1303 537 1289 567 Q1282 581 1272.5 613 Q1263 645 1256 682 L1210 910 L1198 968 Q1193 993 1199.5 999 Q1206 1005 1231 998 Q1237 997 1259.5 988.5 Q1282 980 1363 960 L1461 935 L1570 911 Q1610 947 1570 983 Z" id="t4"></path>
<path d="M1570 911 L1574 399 Q1574 349 1566.5 302 Q1559 255 1551 228 Q1543 201 1542 188 Q1541 175 1546 168 Q1551 161 1561 158 Q1572 155 1606 163 Q1640 171 1663.5 180 Q1687 189 1709 203.5 Q1731 218 1741.5 230 Q1752 242 1752.5 252.5 Q1753 263 1744 281 Q1736 296 1729 314 Q1722 332 1716.5 369 Q1711 406 1707.5 490.5 Q1704 575 1703 656 L1699 899 L1694 1069 L1685 1448 Q1682 1552 1675.5 1613 Q1669 1674 1663 1716.5 Q1657 1759 1649.5 1798 Q1642 1837 1630 1863.5 Q1618 1890 1606 1890.5 Q1594 1891 1580 1854 Q1569 1827 1567 1792 Q1565 1757 1561.5 1670 Q1558 1583 1560 1509 L1570 983 L1570 911 Z" id="t5"></path>
</g>
<text class="number" style="font-size:100px;font-style:bold;" x="365" y="645">1</text>
<text class="number" style="font-size:100px;font-style:bold;" x="460" y="675">2</text>
<text class="number" style="font-size:100px;font-style:bold;" x="485" y="1085">3</text>
<text class="number" style="font-size:100px;font-style:bold;" x="1220" y="470">4</text>
<text class="number" style="font-size:100px;font-style:bold;" x="1653" y="180">5</text>

<circle cx="0" cy="0" r="120" style="fill:#ff0000a0;"><animateMotion path="M365 645 L440 1195 M460 675 L770 533 L937 603 L728 1068 M485 1085 L800 1065 M1220 470 L1110 975 L1130 1100 L1592 942 M1653 180 L1606 1860 L1625 965" begin="0s" dur="15s" repeatCount="indefinite"></animateMotion></circle>
</svg>