<svg id="懂" viewBox="0 0 2048 2048" xmlns="http://www.w3.org/2000/svg">
<g fill="#ff6699" fill-opacity="1" stroke="#000000" stroke-width="0" stroke-linejoin="round" stroke-opacity="0">
<path d="M287 690 Q290 690 303 708.5 Q316 727 322.5 750 Q329 773 332 800.5 Q335 828 334 856 Q332 885 325 919.5 Q318 954 306.5 993 Q295 1032 283.5 1058.5 Q272 1085 258.5 1098.5 Q245 1112 230.5 1114 Q216 1116 199 1097 Q186 1084 179 1059.5 Q172 1035 171 1012 Q170 989 173 971 Q176 957 192.5 925 Q209 893 224 856 L247 799 Q263 761 267 736.5 Q271 712 276.5 701.5 Q282 691 287 690 Z" id="t1"></path>
<path d="M562 625 Q556 689 554 727 Q552 765 552.5 871 Q553 977 551 1090 Q548 1241 548 1279 L548 1434 Q547 1461 547 1560 Q546 1642 546.5 1697.5 Q547 1753 543 1779 Q539 1797 529 1828 Q519 1859 506 1872 Q493 1885 481 1885.5 Q469 1886 458 1875 Q448 1867 436 1836 L419 1796 Q407 1768 405.5 1745 Q404 1722 409 1690 L424 1598 Q427 1575 434 1470 L447 1311 Q453 1226 456 1119 L467 654 Q468 587 466 518 L461 402 Q459 346 456.5 327 Q454 308 447 275 Q440 242 428 219 Q416 196 414.5 187.5 Q413 179 419 170.5 Q425 162 449 163 Q469 165 502 178 Q535 191 549.5 201.5 Q564 212 581.5 229 Q599 246 600.5 253.5 Q602 261 597 278 Q593 291 589.5 309.5 Q586 328 583.5 346 Q581 364 574 456 L564 580 L562 625 Z" id="t2"></path>
<path d="M564 580 Q599 591 629.5 600.5 Q660 610 697 625 Q734 640 752.5 652 Q771 664 782 680 Q793 696 793.5 727 Q794 758 781.5 785.5 Q769 813 752 814.5 Q735 816 714 798 Q694 783 670 754 L627 703 L591 661 L562 625 L564 580 Z" id="t3"></path>
<path d="M998 450 Q990 431 987 420 L972 375 Q966 359 956.5 337.5 Q947 316 940 306 L922 285 Q914 272 918 262.5 Q922 253 939 248 Q951 245 991.5 254 Q1032 263 1039 265.5 Q1046 268 1058.5 276 Q1071 284 1076 289.5 Q1081 295 1082.5 302.5 Q1084 310 1082 330 Q1080 350 1080 360 Q1079 370 1082 393 L1086 437 L1088 496 Q1091 519 1092 530 L1092 565 Q1092 584 1088.5 594.5 Q1085 605 1076 607.5 Q1067 610 1057 601 Q1047 592 1042 578 L1031 544 L1018 514 L998 450 Z" id="t4"></path>
<path d="M1086 437 L1215 424 Q1229 423 1231.5 435.5 Q1234 448 1221 452 L1088 496 L1018 514 Q997 520 982 525 Q967 530 945 538 Q923 546 895.5 558.5 Q868 571 855.5 575.5 Q843 580 831 579 Q821 579 809.5 573.5 Q798 568 782.5 557.5 Q767 547 744.5 528.5 Q722 510 715 494.5 Q708 479 713 471.5 Q718 464 734 462 Q744 461 770.5 464.5 Q797 468 826 467 Q840 467 892.5 463 Q945 459 954 457 L998 450 L1086 437 Z" id="t5"></path>
<path d="M1557 393 Q1588 387 1635 378.5 Q1682 370 1701 366 Q1720 362 1734 362 Q1750 363 1774.5 370.5 Q1799 378 1816 386 Q1833 394 1844.5 404.5 Q1856 415 1855 422 Q1853 429 1839 436.5 Q1825 444 1791 445 L1688 450 L1591 454 L1522 461 L1449 470 Q1430 472 1421 473 L1391 479 Q1373 481 1358 476 Q1343 471 1323 461 Q1303 451 1301.5 443 Q1300 435 1306 428 Q1311 422 1325 422.5 Q1339 423 1387 415 L1428 411 L1465 405 L1557 393 Z" id="t6"></path>
<path d="M1465 405 L1481 342 Q1485 326 1485.5 291.5 Q1486 257 1487 247 Q1487 224 1483 209 Q1479 194 1480 187 Q1481 180 1489.5 174 Q1498 168 1525 177 Q1561 190 1575 197 Q1589 204 1608.5 220 Q1628 236 1629.5 244.5 Q1631 253 1627 261 L1610 283 Q1606 288 1581 337 L1557 393 L1522 461 Q1505 488 1492 508 Q1479 528 1465 545 L1438 579 Q1423 598 1415 592 Q1407 586 1413 571 L1426 537 Q1435 513 1439 501 L1449 470 L1465 405 Z" id="t7"></path>
</g>
<g fill="#56B4E9" fill-opacity="1" stroke="#000000" stroke-width="0" stroke-linejoin="round" stroke-opacity="0">
<path d="M1150 739 Q1100 751 1065 758 Q1030 765 995 768 L940 774 Q926 776 921 767 Q916 758 939 749 L987 731 L1050 709 Q1081 698 1142 670.5 Q1203 643 1234.5 624.5 Q1266 606 1282 589.5 Q1298 573 1305.5 569 Q1313 565 1323 565 Q1331 566 1351 575 Q1371 584 1379 589.5 Q1387 595 1413.5 617.5 Q1440 640 1444.5 652 Q1449 664 1445 670 Q1441 676 1428 680 Q1415 684 1380.5 689.5 Q1346 695 1324.5 699 Q1303 703 1276 710 L1218 725 L1150 739 Z" id="t8"></path>
<path d="M1185 924 Q1129 930 1061 936 Q993 942 967 945 L884 958 Q820 968 803.5 971.5 Q787 975 777 976 Q767 977 755 975 Q730 973 709.5 964.5 Q689 956 671 946.5 Q653 937 648.5 928 Q644 919 650 910 Q654 903 676 901 L721 897 Q722 897 759 894.5 Q796 892 811 890 L1183 854 L1310 837 Q1392 830 1434 824 L1554 807 Q1650 795 1684 788.5 Q1718 782 1736 782 Q1758 783 1784.5 791.5 Q1811 800 1831 810.5 Q1851 821 1865.5 835.5 Q1880 850 1876.5 859.5 Q1873 869 1855 874 Q1842 878 1816.5 877.5 Q1791 877 1736.5 881.5 Q1682 886 1580.5 891 Q1479 896 1450 898 L1303 909 L1185 924 Z" id="t9"></path>
<path d="M1004 1438 Q1000 1447 995 1451.5 Q990 1456 980 1455 Q968 1455 954 1441.5 Q940 1428 932 1398 Q924 1368 915.5 1316 Q907 1264 900 1224 Q893 1184 887 1157.5 Q881 1131 872.5 1112.5 Q864 1094 849.5 1080.5 Q835 1067 828.5 1058.5 Q822 1050 826.5 1042.5 Q831 1035 843 1032 Q855 1029 878 1031 Q909 1035 920 1038 L939 1044 Q973 1051 977 1084 L987 1196 L995 1249 L1008 1376 Q1013 1394 1004 1438 Z" id="t10"></path>
<path d="M939 1044 Q992 1040 1046.5 1035.5 Q1101 1031 1112 1029 L1183 1021 L1298 1004 Q1327 1000 1366 994.5 Q1405 989 1415 986 L1486 967 Q1510 962 1527 962 Q1542 963 1561 969.5 Q1580 976 1612.5 993 Q1645 1010 1663 1027 Q1681 1044 1679 1056 Q1678 1061 1672 1069 Q1666 1077 1656 1093 Q1646 1109 1641.5 1117.5 Q1637 1126 1627.5 1154 Q1618 1182 1610 1205 L1567 1319 L1551 1367 Q1541 1389 1527 1401 Q1513 1413 1499 1413 Q1483 1414 1471 1405 L1454 1394 Q1418.25 1324.25 1462.5 1338.5 Q1468 1339 1478 1301 L1491 1254 L1502 1212 L1512 1165 Q1516 1135 1519.5 1113.5 Q1523 1092 1522 1075 Q1520 1056 1512.5 1049 Q1505 1042 1491 1040 Q1477 1039 1443 1043 L1363 1050 L1295 1057 L1182 1070 Q1142 1075 1100 1080 Q1058 1085 1038 1084 L977 1084 L939 1044 Z" id="t11"></path>
<path d="M987 1196 Q1018 1195 1034 1193 L1089 1186 L1131 1182 L1184 1176 L1291 1161 Q1326 1156 1349 1152.5 Q1372 1149 1387.5 1147 Q1403 1145 1414 1145 Q1425 1146 1451.5 1150.5 Q1478 1155 1486 1157 L1512 1165 L1502 1212 Q1451 1216 1426 1218 L1357 1225 L1289 1231 L1182 1243 Q1137 1245 1092 1248.5 Q1047 1252 1046 1251 L995 1249 L987 1196 Z" id="t12"></path>
<path d="M1179 1424 Q1135 1431 1107.5 1434 Q1080 1437 1046 1437 L1004 1438 L1008 1376 L1182 1357 L1283 1342 Q1311 1338 1337 1333.5 Q1363 1329 1382 1327.5 Q1401 1326 1417 1326 Q1430 1327 1443.5 1332.5 Q1457 1338 1462.5 1338.5 L1454 1394 Q1380 1403 1366 1404 L1279 1413 L1179 1424 Z" id="t13"></path>
<path d="M1180 1591 L1083 1598 L1018 1604 Q996 1606 953 1604 Q910 1602 890.5 1588.5 Q871 1575 876 1565 Q878 1560 903 1557 L984 1546 L1082 1537 L1178 1524 L1276 1511 Q1312 1505 1344 1500 Q1376 1495 1398 1489 L1430 1480 Q1449 1475 1461 1474 Q1476 1474 1491.5 1478.5 Q1507 1483 1528 1492.5 Q1549 1502 1560.5 1511.5 Q1572 1521 1571 1528 Q1569 1534 1555.5 1541.5 Q1542 1549 1519.5 1551 Q1497 1553 1457.5 1559 Q1418 1565 1363 1571 L1274 1581 L1180 1591 Z" id="t14"></path>
<path d="M1178 1524 L1179 1424 L1182 1357 L1182 1243 L1184 1176 L1182 1070 L1183 1021 L1185 924 L1183 854 Q1181 834 1178 812 Q1175 790 1168 776 L1150 739 L1218 725 Q1247 733 1267 739.5 Q1287 746 1302.5 756.5 Q1318 767 1321 776 L1316 806 L1310 837 L1303 909 L1298 1004 L1295 1057 L1291 1161 L1289 1231 L1283 1342 L1279 1413 L1276 1511 L1274 1581 L1267 1702 Q1218.5 1761.5 1178 1709 L1180 1591 L1178 1524 Z" id="t15"></path>
<path d="M1267 1702 L1378 1690 L1471 1678 Q1566 1667 1594 1660.5 Q1622 1654 1630 1653 Q1665 1650 1701.5 1666 Q1738 1682 1766 1695.5 Q1794 1709 1801 1719 Q1808 1729 1808.5 1738 Q1809 1747 1802 1753 Q1795 1759 1779 1759 L1712 1760 Q1706 1761 1664 1758 Q1622 1755 1522 1760 L1380 1767 L1239 1778 L1146 1784 Q1091 1789 1031 1800 Q971 1811 942.5 1817.5 Q914 1824 903 1824 Q883 1825 865 1819.5 Q847 1814 814 1801.5 Q781 1789 768 1775.5 Q755 1762 759 1752 Q761 1745 800 1743 Q839 1741 876 1738 L976 1729 Q1050 1723 1063 1721 L1178 1709 L1267 1702 Z" id="t16"></path>
</g>
<g fill="#009E73" fill-opacity="1" stroke="#000000" stroke-width="0" stroke-linejoin="round" stroke-opacity="0">
<path d="M287 690 Q290 690 303 708.5 Q316 727 322.5 750 Q329 773 332 800.5 Q335 828 334 856 Q332 885 325 919.5 Q318 954 306.5 993 Q295 1032 283.5 1058.5 Q272 1085 258.5 1098.5 Q245 1112 230.5 1114 Q216 1116 199 1097 Q186 1084 179 1059.5 Q172 1035 171 1012 Q170 989 173 971 Q176 957 192.5 925 Q209 893 224 856 L247 799 Q263 761 267 736.5 Q271 712 276.5 701.5 Q282 691 287 690 Z" id="t17"></path>
<path d="M562 625 Q556 689 554 727 Q552 765 552.5 871 Q553 977 551 1090 Q548 1241 548 1279 L548 1434 Q547 1461 547 1560 Q546 1642 546.5 1697.5 Q547 1753 543 1779 Q539 1797 529 1828 Q519 1859 506 1872 Q493 1885 481 1885.5 Q469 1886 458 1875 Q448 1867 436 1836 L419 1796 Q407 1768 405.5 1745 Q404 1722 409 1690 L424 1598 Q427 1575 434 1470 L447 1311 Q453 1226 456 1119 L467 654 Q468 587 466 518 L461 402 Q459 346 456.5 327 Q454 308 447 275 Q440 242 428 219 Q416 196 414.5 187.5 Q413 179 419 170.5 Q425 162 449 163 Q469 165 502 178 Q535 191 549.5 201.5 Q564 212 581.5 229 Q599 246 600.5 253.5 Q602 261 597 278 Q593 291 589.5 309.5 Q586 328 583.5 346 Q581 364 574 456 L564 580 L562 625 Z" id="t18"></path>
<path d="M564 580 Q599 591 629.5 600.5 Q660 610 697 625 Q734 640 752.5 652 Q771 664 782 680 Q793 696 793.5 727 Q794 758 781.5 785.5 Q769 813 752 814.5 Q735 816 714 798 Q694 783 670 754 L627 703 L591 661 L562 625 L564 580 Z" id="t19"></path>
<path d="M998 450 Q990 431 987 420 L972 375 Q966 359 956.5 337.5 Q947 316 940 306 L922 285 Q914 272 918 262.5 Q922 253 939 248 Q951 245 991.5 254 Q1032 263 1039 265.5 Q1046 268 1058.5 276 Q1071 284 1076 289.5 Q1081 295 1082.5 302.5 Q1084 310 1082 330 Q1080 350 1080 360 Q1079 370 1082 393 L1086 437 L1088 496 Q1091 519 1092 530 L1092 565 Q1092 584 1088.5 594.5 Q1085 605 1076 607.5 Q1067 610 1057 601 Q1047 592 1042 578 L1031 544 L1018 514 L998 450 Z" id="t20"></path>
<path d="M1086 437 L1215 424 Q1229 423 1231.5 435.5 Q1234 448 1221 452 L1088 496 L1018 514 Q997 520 982 525 Q967 530 945 538 Q923 546 895.5 558.5 Q868 571 855.5 575.5 Q843 580 831 579 Q821 579 809.5 573.5 Q798 568 782.5 557.5 Q767 547 744.5 528.5 Q722 510 715 494.5 Q708 479 713 471.5 Q718 464 734 462 Q744 461 770.5 464.5 Q797 468 826 467 Q840 467 892.5 463 Q945 459 954 457 L998 450 L1086 437 Z" id="t21"></path>
<path d="M1557 393 Q1588 387 1635 378.5 Q1682 370 1701 366 Q1720 362 1734 362 Q1750 363 1774.5 370.5 Q1799 378 1816 386 Q1833 394 1844.5 404.5 Q1856 415 1855 422 Q1853 429 1839 436.5 Q1825 444 1791 445 L1688 450 L1591 454 L1522 461 L1449 470 Q1430 472 1421 473 L1391 479 Q1373 481 1358 476 Q1343 471 1323 461 Q1303 451 1301.5 443 Q1300 435 1306 428 Q1311 422 1325 422.5 Q1339 423 1387 415 L1428 411 L1465 405 L1557 393 Z" id="t22"></path>
<path d="M1465 405 L1481 342 Q1485 326 1485.5 291.5 Q1486 257 1487 247 Q1487 224 1483 209 Q1479 194 1480 187 Q1481 180 1489.5 174 Q1498 168 1525 177 Q1561 190 1575 197 Q1589 204 1608.5 220 Q1628 236 1629.5 244.5 Q1631 253 1627 261 L1610 283 Q1606 288 1581 337 L1557 393 L1522 461 Q1505 488 1492 508 Q1479 528 1465 545 L1438 579 Q1423 598 1415 592 Q1407 586 1413 571 L1426 537 Q1435 513 1439 501 L1449 470 L1465 405 Z" id="t23"></path>
<path d="M1150 739 Q1100 751 1065 758 Q1030 765 995 768 L940 774 Q926 776 921 767 Q916 758 939 749 L987 731 L1050 709 Q1081 698 1142 670.5 Q1203 643 1234.5 624.5 Q1266 606 1282 589.5 Q1298 573 1305.5 569 Q1313 565 1323 565 Q1331 566 1351 575 Q1371 584 1379 589.5 Q1387 595 1413.5 617.5 Q1440 640 1444.5 652 Q1449 664 1445 670 Q1441 676 1428 680 Q1415 684 1380.5 689.5 Q1346 695 1324.5 699 Q1303 703 1276 710 L1218 725 L1150 739 Z" id="t24"></path>
<path d="M1185 924 Q1129 930 1061 936 Q993 942 967 945 L884 958 Q820 968 803.5 971.5 Q787 975 777 976 Q767 977 755 975 Q730 973 709.5 964.5 Q689 956 671 946.5 Q653 937 648.5 928 Q644 919 650 910 Q654 903 676 901 L721 897 Q722 897 759 894.5 Q796 892 811 890 L1183 854 L1310 837 Q1392 830 1434 824 L1554 807 Q1650 795 1684 788.5 Q1718 782 1736 782 Q1758 783 1784.5 791.5 Q1811 800 1831 810.5 Q1851 821 1865.5 835.5 Q1880 850 1876.5 859.5 Q1873 869 1855 874 Q1842 878 1816.5 877.5 Q1791 877 1736.5 881.5 Q1682 886 1580.5 891 Q1479 896 1450 898 L1303 909 L1185 924 Z" id="t25"></path>
<path d="M1004 1438 Q1000 1447 995 1451.5 Q990 1456 980 1455 Q968 1455 954 1441.5 Q940 1428 932 1398 Q924 1368 915.5 1316 Q907 1264 900 1224 Q893 1184 887 1157.5 Q881 1131 872.5 1112.5 Q864 1094 849.5 1080.5 Q835 1067 828.5 1058.5 Q822 1050 826.5 1042.5 Q831 1035 843 1032 Q855 1029 878 1031 Q909 1035 920 1038 L939 1044 L977 1084 L987 1196 L995 1249 L1008 1376 L1004 1438 Z" id="t26"></path>
<path d="M939 1044 Q992 1040 1046.5 1035.5 Q1101 1031 1112 1029 L1183 1021 L1298 1004 Q1327 1000 1366 994.5 Q1405 989 1415 986 L1486 967 Q1510 962 1527 962 Q1542 963 1561 969.5 Q1580 976 1612.5 993 Q1645 1010 1663 1027 Q1681 1044 1679 1056 Q1678 1061 1672 1069 Q1666 1077 1656 1093 Q1646 1109 1641.5 1117.5 Q1637 1126 1627.5 1154 Q1618 1182 1610 1205 L1567 1319 L1551 1367 Q1541 1389 1527 1401 Q1513 1413 1499 1413 Q1483 1414 1471 1405 L1454 1394 L1462.5 1338.5 Q1468 1339 1478 1301 L1491 1254 L1502 1212 L1512 1165 Q1516 1135 1519.5 1113.5 Q1523 1092 1522 1075 Q1520 1056 1512.5 1049 Q1505 1042 1491 1040 Q1477 1039 1443 1043 L1363 1050 L1295 1057 L1182 1070 Q1142 1075 1100 1080 Q1058 1085 1038 1084 L977 1084 L939 1044 Z" id="t27"></path>
<path d="M987 1196 Q1018 1195 1034 1193 L1089 1186 L1131 1182 L1184 1176 L1291 1161 Q1326 1156 1349 1152.5 Q1372 1149 1387.5 1147 Q1403 1145 1414 1145 Q1425 1146 1451.5 1150.5 Q1478 1155 1486 1157 L1512 1165 L1502 1212 Q1451 1216 1426 1218 L1357 1225 L1289 1231 L1182 1243 Q1137 1245 1092 1248.5 Q1047 1252 1046 1251 L995 1249 L987 1196 Z" id="t28"></path>
<path d="M1179 1424 Q1135 1431 1107.5 1434 Q1080 1437 1046 1437 L1004 1438 L1008 1376 L1182 1357 L1283 1342 Q1311 1338 1337 1333.5 Q1363 1329 1382 1327.5 Q1401 1326 1417 1326 Q1430 1327 1443.5 1332.5 Q1457 1338 1462.5 1338.5 L1454 1394 Q1380 1403 1366 1404 L1279 1413 L1179 1424 Z" id="t29"></path>
<path d="M1180 1591 L1083 1598 L1018 1604 Q996 1606 953 1604 Q910 1602 890.5 1588.5 Q871 1575 876 1565 Q878 1560 903 1557 L984 1546 L1082 1537 L1178 1524 L1276 1511 Q1312 1505 1344 1500 Q1376 1495 1398 1489 L1430 1480 Q1449 1475 1461 1474 Q1476 1474 1491.5 1478.5 Q1507 1483 1528 1492.5 Q1549 1502 1560.5 1511.5 Q1572 1521 1571 1528 Q1569 1534 1555.5 1541.5 Q1542 1549 1519.5 1551 Q1497 1553 1457.5 1559 Q1418 1565 1363 1571 L1274 1581 L1180 1591 Z" id="t30"></path>
<path d="M1178 1524 L1179 1424 L1182 1357 L1182 1243 L1184 1176 L1182 1070 L1183 1021 L1185 924 L1183 854 Q1181 834 1178 812 Q1175 790 1168 776 L1150 739 L1218 725 Q1247 733 1267 739.5 Q1287 746 1302.5 756.5 Q1318 767 1321 776 L1316 806 L1310 837 L1303 909 L1298 1004 L1295 1057 L1291 1161 L1289 1231 L1283 1342 L1279 1413 L1276 1511 L1274 1581 L1267 1702 L1178 1709 L1180 1591 L1178 1524 Z" id="t31"></path>
<path d="M1267 1702 L1378 1690 L1471 1678 Q1566 1667 1594 1660.5 Q1622 1654 1630 1653 Q1665 1650 1701.5 1666 Q1738 1682 1766 1695.5 Q1794 1709 1801 1719 Q1808 1729 1808.5 1738 Q1809 1747 1802 1753 Q1795 1759 1779 1759 L1712 1760 Q1706 1761 1664 1758 Q1622 1755 1522 1760 L1380 1767 L1239 1778 L1146 1784 Q1091 1789 1031 1800 Q971 1811 942.5 1817.5 Q914 1824 903 1824 Q883 1825 865 1819.5 Q847 1814 814 1801.5 Q781 1789 768 1775.5 Q755 1762 759 1752 Q761 1745 800 1743 Q839 1741 876 1738 L976 1729 Q1050 1723 1063 1721 L1178 1709 L1267 1702 Z" id="t32"></path>
</g>
<text class="number" style="font-size:100px;font-style:bold;" x="285" y="701">1</text>
<text class="number" style="font-size:100px;font-style:bold;" x="519" y="194">2</text>
<text class="number" style="font-size:100px;font-style:bold;" x="568" y="604">3</text>
<text class="number" style="font-size:100px;font-style:bold;" x="986" y="260">4</text>
<text class="number" style="font-size:100px;font-style:bold;" x="765" y="535">5</text>
<text class="number" style="font-size:100px;font-style:bold;" x="1339" y="452">6</text>
<text class="number" style="font-size:100px;font-style:bold;" x="1562" y="206">7</text>
<text class="number" style="font-size:100px;font-style:bold;" x="1382" y="608">8</text>
<text class="number" style="font-size:100px;font-style:bold;" x="681" y="939">9</text>
<text class="number" style="font-size:100px;font-style:bold;" x="898" y="1043">10</text>
<text class="number" style="font-size:100px;font-style:bold;" x="963" y="1060">11</text>
<text class="number" style="font-size:100px;font-style:bold;" x="993" y="1230">12</text>
<text class="number" style="font-size:100px;font-style:bold;" x="1012" y="1404">13</text>
<text class="number" style="font-size:100px;font-style:bold;" x="896" y="1580">14</text>
<text class="number" style="font-size:100px;font-style:bold;" x="1246" y="742">15</text>
<text class="number" style="font-size:100px;font-style:bold;" x="813" y="1790">16</text>
<text class="number" style="font-size:100px;font-style:bold;" x="275" y="710">17</text>
<text class="number" style="font-size:100px;font-style:bold;" x="425" y="160">18</text>
<text class="number" style="font-size:100px;font-style:bold;" x="565" y="610">19</text>
<text class="number" style="font-size:100px;font-style:bold;" x="983" y="263">20</text>
<text class="number" style="font-size:100px;font-style:bold;" x="756" y="530">21</text>
<text class="number" style="font-size:100px;font-style:bold;" x="1316" y="440">22</text>
<text class="number" style="font-size:100px;font-style:bold;" x="1553" y="200">23</text>
<text class="number" style="font-size:100px;font-style:bold;" x="1393" y="610">24</text>
<text class="number" style="font-size:100px;font-style:bold;" x="686" y="940">25</text>
<text class="number" style="font-size:100px;font-style:bold;" x="850" y="1043">26</text>
<text class="number" style="font-size:100px;font-style:bold;" x="976" y="1066">27</text>
<text class="number" style="font-size:100px;font-style:bold;" x="990" y="1220">28</text>
<text class="number" style="font-size:100px;font-style:bold;" x="1010" y="1403">29</text>
<text class="number" style="font-size:100px;font-style:bold;" x="886" y="1583">30</text>
<text class="number" style="font-size:100px;font-style:bold;" x="1216" y="736">31</text>
<text class="number" style="font-size:100px;font-style:bold;" x="796" y="1786">32</text>

<circle cx="0" cy="0" r="120" style="fill:#ff0000a0;"><animateMotion  begin="0s" dur="20s" repeatCount="indefinite" path="M285 701 L230 1104 M519 194 L483 1876 M568 604 L775 760 M986 260 L1076 603 M765 535 L1210 436 M1339 452 L1808 395 M1562 206 L1424 582 M1382 608 L934 765 M681 939 L1832 822 M898 1043 L983 1450 M963 1060 L1579 920 L1687 988 L1576 1145 L1486 1398 M993 1230 L1503 1193 M1012 1404 L1450 1362 M896 1580 L1525 1501 M1246 742 L1223 1726 M813 1790 L1733 1693 M275 710 L225 1080 M425 160 L520 245 L495 1220 L465 1875 M565 610 L780 735 M983 263 L1080 580 M756 530 L1223 430 M1316 440 L1826 406 M1553 200 L1423 590 M1393 610 L1170 703 L953 753 M686 940 L1236 886 L1836 830 M850 1043 L933 1106 L976 1453 M976 1066 L1480 1006 L1603 993 L1646 1066 L1500 1400 M990 1220 L1496 1203 M1010 1403 L1450 1376 M886 1583 L1550 1523 M1216 736 L1250 1363 L1223 1693 M796 1786 L1236 1746 L1750 1703"></animateMotion></circle>
</svg>