<svg id="啊" viewBox="0 0 2048 2048" xmlns="http://www.w3.org/2000/svg">
<g fill="#ff6699" fill-opacity="1" stroke="#000000" stroke-width="0" stroke-linejoin="round" stroke-opacity="0">
<path d="M235 1017 Q231 1039 229 1050.5 Q227 1062 222.5 1072.5 Q218 1083 207 1087 Q196 1091 180 1074 Q169 1064 164 1046 Q159 1028 151 970 L121 757 Q117 730 104 699 Q91 668 71 646 Q51 624 48.5 614 Q46 604 50 597 Q54 590 81 592 Q120 597 133 599 L180 609 Q199 625.5 196 664 L230 955 L235 1017 Z" id="t1"></path>
<path d="M180 609 Q205 605 219 602 Q233 599 293.5 578 Q354 557 383.5 538.5 Q413 520 419 518 Q434 515 458.5 522 Q483 529 519 548.5 Q555 568 556 583 Q557 598 544 623 Q533 643 526.5 662 Q520 681 504.5 732.5 Q489 784 486 803 L460 933 Q407 965.5 384 922 L408 756 L416 675 Q419 647 417.5 633.5 Q416 620 409.5 613.5 Q403 607 382 610 Q366 613 328 625.5 Q290 638 267 644 L196 664 L180 609 Z" id="t2"></path>
<path d="M460 933 Q474 942 484.5 951.5 Q495 961 492 971 Q489 981 475 983 L235 1017 L230 955 Q274 947 297 941 L354 927 L384 922 L460 933 Z" id="t3"></path>
</g>
<g fill="#56B4E9" fill-opacity="1" stroke="#000000" stroke-width="0" stroke-linejoin="round" stroke-opacity="0">
<path d="M705 371 Q745 357 758 351.5 Q771 346 826 321.5 Q881 297 901.5 284.5 Q922 272 931 270 Q950 266 969.5 274.5 Q989 283 1025.5 301.5 Q1062 320 1070.5 331.5 Q1079 343 1079 350 Q1078 356 1071.5 367 Q1065 378 1036.5 403 Q1008 428 974.5 461.5 Q941 495 918 524 Q895 553 884 578 Q873 603 872.5 618.5 Q833 656 803.5 617.5 Q803 603 816 574 Q831 541 853 499 Q875 457 879.5 447.5 Q884 438 890.5 420 Q897 402 893 395 Q889 388 861 392 Q844 395 813 403 L716 429 Q681.5 404 705 371 Z" id="t4"></path>
<path d="M872.5 618.5 Q872 634 881 653 Q890 675 922.5 715.5 Q955 756 968.5 776.5 Q982 797 994 827 Q1006 857 1009.5 894 Q1013 931 998 966 Q985 996 961 1015.5 Q937 1035 924 1034 Q911 1034 888 1010 Q865 986 828 957.5 Q791 929 779 920 L749 900 Q739 894 744.5 885 Q750 876 764 878 L805 885 L845 889 Q869 893 876.5 888 Q884 883 888 870 Q892 857 890 838 Q887 818 881.5 794 Q876 770 851 720 L817 655 Q804 632 803.5 617.5 L872.5 618.5 Z" id="t5"></path>
<path d="M716 429 Q715 461 715.5 497.5 Q716 534 716 547 L710 643 L693 1356 L690 1497 L686 1575 Q683 1632 672.5 1670.5 Q662 1709 646 1711 Q630 1713 609 1691 Q589 1672 575.5 1636 Q562 1600 559.5 1579.5 Q557 1559 564 1523 L575 1464 Q580 1435 591.5 1326.5 Q603 1218 606.5 1178.5 Q610 1139 612 1063 L621 703 Q623 585 614 518.5 Q605 452 600 433.5 Q595 415 583.5 395.5 Q572 376 571 365.5 Q570 355 577 347 Q584 339 612 343 Q641 349 663 356 L705 371 L716 429 Z" id="t6"></path>
</g>
<g fill="#009E73" fill-opacity="1" stroke="#000000" stroke-width="0" stroke-linejoin="round" stroke-opacity="0">
<path d="M1591 474 Q1496 488 1450 495 L1325 518 Q1210 539 1171 548 Q1132 557 1110 555 Q1084 554 1057.5 544.5 Q1031 535 1018.5 521.5 Q1006 508 1008.5 500.5 Q1011 493 1035 488 L1098 477 Q1134 471 1244.5 456.5 Q1355 442 1442.5 428 Q1530 414 1610.5 399.5 Q1691 385 1731 376.5 Q1771 368 1807.5 359 Q1844 350 1862 351 Q1880 353 1917 368 Q1954 383 1977.5 398 Q2001 413 1999 422 Q1997 431 1986 438 Q1975 445 1940 447 L1876 451 L1758 458 L1665 466 L1591 474 Z" id="t7"></path>
<path d="M1665 466 Q1708 478 1726 485.5 Q1744 493 1751 500 Q1758 507 1761.5 516 Q1765 525 1759 547 L1751 576 Q1744 606 1743.5 632 Q1743 658 1743 811 L1743 1177 Q1743 1197 1748.5 1324 Q1754 1451 1753 1521 Q1750 1629 1731 1673 Q1712 1717 1685.5 1750 Q1659 1783 1637 1781 Q1631 1781 1621 1777 Q1611 1773 1592.5 1747 Q1574 1721 1539.5 1683 Q1505 1645 1479 1624 L1434 1589 Q1412 1574 1413.5 1566.5 Q1415 1559 1420.5 1556 Q1426 1553 1449 1558 L1508 1573 Q1540 1581 1572 1583 Q1604 1585 1610 1580 Q1613 1577 1620 1555.5 Q1627 1534 1629.5 1487 Q1632 1440 1634 1360 L1638 1182 Q1643 950 1640 862 Q1637 774 1632 698 L1625 607 Q1620 552 1610 525 L1591 474 L1665 466 Z" id="t11"></path>
</g>
<g fill="#F0E442" fill-opacity="1" stroke="#000000" stroke-width="0" stroke-linejoin="round" stroke-opacity="0">
<path d="M1202 1095 Q1198 1115 1195.5 1131 Q1193 1147 1186 1150.5 Q1179 1154 1169 1148 Q1159 1142 1149.5 1122 Q1140 1102 1135 1061 L1115 911 Q1109 869 1103 856 L1072 811 Q1061 789 1067 783 Q1073 777 1094 778 Q1125 781 1128 781 L1165 792 Q1190 799 1187 844 Q1188 860 1189 868 L1194 947 L1200 1036 L1202 1095 Z" id="t8"></path>
<path d="M1165 792 L1294 760 Q1320 754 1339 742 L1363 727 Q1371 723 1378 722 Q1389 721 1422 737 L1466 759 Q1494 778 1492 794 Q1491 800 1484.5 810 Q1478 820 1464 846.5 Q1450 873 1441 898 L1422 963 L1400 1034 Q1343.5 1060 1323 1014 Q1334 982 1339.5 961 Q1345 940 1349.5 901.5 Q1354 863 1356 841.5 Q1358 820 1353 812.5 Q1348 805 1330 808.5 Q1312 812 1273 822 L1187 844 L1165 792 Z" id="t9"></path>
<path d="M1400 1034 Q1415 1040 1426 1051 Q1437 1062 1433.5 1070 Q1430 1078 1384 1081 L1202 1095 L1200 1036 L1323 1014 L1400 1034 Z" id="t10"></path>
</g>
<text class="number" style="font-size:100px;font-style:bold;" x="116" y="610">1</text>
<text class="number" style="font-size:100px;font-style:bold;" x="203" y="633">2</text>
<text class="number" style="font-size:100px;font-style:bold;" x="243" y="980">3</text>
<text class="number" style="font-size:100px;font-style:bold;" x="657" y="423">4</text>
<text class="number" style="font-size:100px;font-style:bold;" x="846" y="623">5</text>
<text class="number" style="font-size:100px;font-style:bold;" x="663" y="370">6</text>
<text class="number" style="font-size:100px;font-style:bold;" x="1046" y="523">7</text>
<text class="number" style="font-size:100px;font-style:bold;" x="1110" y="783">8</text>
<text class="number" style="font-size:100px;font-style:bold;" x="1180" y="816">9</text>
<text class="number" style="font-size:100px;font-style:bold;" x="1206" y="1053">10</text>
<text class="number" style="font-size:100px;font-style:bold;" x="1673" y="486">11</text>

<circle cx="0" cy="0" r="120" style="fill:#ff0000a0;"><animateMotion path="M116 610 L193 1086 M203 633 L433 531 L523 575 L423 978 M243 980 L460 956 M657 423 L912 283 L1046 329 L827 616 M846 623 L956 890 L930 1020 L763 900 M663 370 L653 1690 M1046 523 L1960 400 M1110 783 L1170 1136 M1180 816 L1384 738 L1476 770 L1360 1061 L1485 760 M1206 1053 L1423 1056 M1673 486 L1700 1183 L1646 1743 L1433 1570" begin="0s" dur="20s" repeatCount="indefinite"></animateMotion></circle>
</svg>