<svg id="è´" viewBox="0 0 2048 2048" xmlns="http://www.w3.org/2000/svg">
<g fill="#ff6699" fill-opacity="1" stroke="#000000" stroke-width="0" stroke-linejoin="round" stroke-opacity="0">
<path d="M315 1332 L315 1333 L306 1364 Q301 1380 288.5 1381 Q276 1382 263 1364 Q252 1351 243 1332.5 Q234 1314 228.5 1294.5 Q223 1275 222.5 1259.5 Q222 1244 234 1173 Q236 1157 242.5 1093.5 Q249 1030 250 1011 L263 676 Q264 642 259 606 Q254 570 248 550.5 Q242 531 232.5 514 Q223 497 219 487.5 Q215 478 220 470 Q225 462 241 460 Q256 459 301 474 L325 483 Q359.5 499.5 346 542 Q345 595 344.5 613.5 Q344 632 342 748 L341 789 L339 830 L333 1012 L332 1061 Q330 1109 329 1132 L322 1231 L320 1271 Q327.5 1308.5 315 1332 Z" id="t1"></path>
<path d="M323 482 L474 453 Q505 452 589 424 Q591 424 599 422 Q612 418 617 418 Q654 418 708 452 Q759 484 759 506 Q759 518 747 546 Q725 594 724 727 L723 1021 L722 1047 Q722 1073 725 1122 Q726 1138 726 1152 Q727 1171 729 1193 L730 1206 L730 1212 L730 1218 Q731 1231 731 1236 L731 1247 Q731 1288 712 1330 Q686 1385 665.5 1384 Q645 1383 631 1358 L603 1312 Q593 1284 605 1252 Q605 1247 607 1238 L608 1233 Q616 1188 616 1128 L616 1047 L612 1048 L616 979 L616 810 L615 739 L615 675 Q615 610 607 546 Q602 506 565 506 Q538 506 505 512 L344 541 C310 539.3333333333334 274 498.6666666666667 323 482 Z" id="t2"></path>
<path d="M341 789 L509 752 L548 742 Q571 737 578 737 L617 740 Q657.5 768.5 618 811 L479 831 L414 841 Q403 842 383 840.5 Q363 839 357 836 L339 830 Q317 809.5 341 789 Z" id="t3"></path>
<path d="M333 1012 L341 1012 L513 984 L548 977 Q571 973 578 974 L618 980 Q652 1011 618 1048 L613 1049 L459 1064 L394 1071 Q378 1071 366 1068 L332 1061 Q302.5 1039.5 333 1012 Z" id="t4"></path>
<path d="M343 1333 L315 1332 L315 1333 C349.5 1336 362 1324 418.5 1342 Q400 1337 388 1333 L605 1313 Q670.5 1288 606 1253 L577 1243 Q572 1242 557 1241 Q541 1241 523 1244 L489 1250 L320 1271 C247.66666666666669 1286.6666666666667 283.3333333333333 1332.3333333333333 343 1333 Z" id="t5"></path>
<path d="M388 1333 Q400 1337 418.5 1342 Q437 1347 467.5 1368 Q498 1389 494 1406 Q492 1413 471.5 1430.5 Q451 1448 430 1478.5 Q409 1509 371.5 1561 Q334 1613 298.5 1653 Q263 1693 229.5 1726 Q196 1759 176 1773 L145 1796 Q133 1805 126 1802.5 Q119 1800 118.5 1794.5 Q118 1789 134 1766 L150 1744 Q159 1732 191.5 1681 Q224 1630 237 1609 Q250 1588 281.5 1526 Q313 1464 325.5 1432.5 Q338 1401 339 1385 L343 1333 Q365.5 1323 388 1333 Z" id="t6"></path>
<path d="M545 1437 L534 1418 Q525 1403 532.5 1396.5 Q540 1390 557 1398 L581 1410 Q601 1421 620 1431.5 Q639 1442 677.5 1473.5 Q716 1505 736.5 1539.5 Q757 1574 760.5 1612.5 Q764 1651 750 1672 Q736 1693 718 1694.5 Q700 1696 676 1663 Q665 1649 645 1613 L612 1555 L573 1485 L545 1437 Z" id="t7"></path>
</g>
<g fill="#56B4E9" fill-opacity="1" stroke="#000000" stroke-width="0" stroke-linejoin="round" stroke-opacity="0">
<path d="M1170 540 Q1139 546 1118 549.5 Q1097 553 1069 556.5 Q1041 560 995 563 Q954 566 934 561.5 Q914 557 902 543.5 Q890 530 893.5 521 Q897 512 916 510 L974 504 Q1036 498 1068.5 494.5 Q1101 491 1149 483 L1169 480 L1278 461 Q1312 455 1337 450 Q1362 445 1391 437 Q1420 429 1445 419.5 Q1470 410 1479 408 Q1497 406 1524.5 415.5 Q1552 425 1574.5 435.5 Q1597 446 1617.5 461.5 Q1638 477 1637 491 Q1636 496 1622 514 Q1608 532 1598 566 L1587 604 L1559 695 L1523 813 Q1460.5 868 1438 797 L1454 698 L1469 618 L1476 541 Q1478 515 1472.5 506.5 Q1467 498 1446 496 Q1434 496 1416.5 500 Q1399 504 1342 513 L1277 523 L1170 540 Z" id="t8"></path>
<path d="M1170 729 L1076 743 Q1034 750 992.5 758.5 Q951 767 926 774.5 Q901 782 893 783 Q875 786 863 782 Q851 778 816 757.5 Q781 737 771.5 725 Q762 713 764.5 704 Q767 695 805 691 L856 686 L970 673 L1120 658 L1170 652 L1276 640 L1469 618 L1587 604 L1729 582 Q1781 574 1798.5 574.5 Q1816 575 1846 590 L1889 616 Q1923 636 1929 651 Q1935 666 1928 677 Q1921 688 1893 688 L1832 689 L1760 689 L1638 693 L1559 695 L1454 698 L1275 716 L1170 729 Z" id="t9"></path>
<path d="M1523 813 Q1534 824 1545 836.5 Q1556 849 1551.5 857 Q1547 865 1537 866 L1490 872 Q1472 875 1410 879 Q1348 883 1314 888 L1273 894 L1171 910 Q1145 916 1136.5 917 Q1128 918 1107.5 920 Q1087 922 1051 928 Q1015 934 1001 933 Q975 933 958 926 Q941 919 928.5 907.5 Q916 896 917 889 Q918 882 934 880 L997 872 L1081 860 L1132 853 L1171 847 L1273 828 Q1306 823 1331 818 Q1356 813 1384.5 807 Q1413 801 1418 800 L1438 797 Q1487.5 795 1523 813 Z" id="t10"></path>
<path d="M1170 652 L1170 540 L1169 480 L1169 405 Q1169 377 1166.5 338 Q1164 299 1158.5 272 Q1153 245 1143.5 223 Q1134 201 1132 192.5 Q1130 184 1134.5 175.5 Q1139 167 1158 164 Q1170 163 1187.5 167 Q1205 171 1223 176 Q1241 181 1266.5 190.5 Q1292 200 1305 213.5 Q1318 227 1317 239 Q1316 242 1307.5 256.5 Q1299 271 1291.5 304 Q1284 337 1281.5 354.5 Q1279 372 1279 393 L1278 461 L1277 523 L1276 640 L1275 716 L1273 828 L1273 894 L1271 1023 Q1221.5 1101 1172 1039 L1171 910 L1171 847 L1170 729 L1170 652 Z" id="t11"></path>
</g>
<g fill="#009E73" fill-opacity="1" stroke="#000000" stroke-width="0" stroke-linejoin="round" stroke-opacity="0">
<path d="M795 1304 Q799 1296 816 1281 L844 1257 Q865 1237 879 1215 L900 1181 Q908 1166 917 1166 Q924 1166 934 1181 Q949 1204 949 1235 Q949 1294 902 1351 Q867 1394 835 1394 Q818 1394 805 1380 Q790 1365 790 1339 Q790 1317 795 1304 Z" id="t12"></path>
</g>
<g fill="#F0E442" fill-opacity="1" stroke="#000000" stroke-width="0" stroke-linejoin="round" stroke-opacity="0">
<path d="M1271 1023 L1316 1014 L1365 1004 L1426 993 Q1465 986 1476 984 Q1498 982 1509.5 985.5 Q1521 989 1544 999.5 Q1567 1010 1586 1024 Q1605 1038 1601 1051 Q1597 1064 1575 1065 L1507 1069 Q1451 1073 1364 1081.5 Q1277 1090 1218.5 1098 Q1160 1106 1104.5 1115.5 Q1049 1125 1013.5 1134.5 Q978 1144 964 1144 Q948 1145 933.5 1140.5 Q919 1136 900.5 1128.5 Q882 1121 868 1108.5 Q854 1096 858 1089.5 Q862 1083 875 1081 L933 1073 L1038 1059 Q1042 1059 1132 1045 L1172 1039 L1271 1023 Z" id="t13"></path>
<path d="M1045 1174 L1084 1186 Q1119 1197 1142 1217.5 Q1165 1238 1174 1266.5 Q1183 1295 1172.5 1320.5 Q1162 1346 1144 1350.5 Q1126 1355 1111 1346 Q1096 1338 1082 1309 L1060 1265 Q1041 1230 1038 1221 L1028 1195 Q1023 1183 1027.5 1177 Q1032 1171 1045 1174 Z" id="t14"></path>
<path d="M1285 1145 L1308 1151 Q1323 1156 1350.5 1169 Q1378 1182 1394.5 1195 Q1411 1208 1417 1226.5 Q1423 1245 1420 1269 Q1416 1294 1404.5 1307 Q1393 1320 1379 1320.5 Q1365 1321 1349 1306 Q1333 1293 1318 1264 L1285 1201 L1270 1173 Q1261 1157 1265 1149 Q1269 1141 1285 1145 Z" id="t15"></path>
<path d="M1515 1196 L1487 1162 Q1476 1149 1480.5 1142 Q1485 1135 1506 1139 L1553 1149 Q1580 1155 1604.5 1164 Q1629 1173 1659 1187.5 Q1689 1202 1703.5 1217 Q1718 1232 1725.5 1251.5 Q1733 1271 1733.5 1293.5 Q1734 1316 1727 1330.5 Q1720 1345 1704 1350.5 Q1688 1356 1662 1343 Q1633 1330 1616.5 1314 Q1600 1298 1562 1251 L1515 1196 Z" id="t16"></path>
</g>
<g fill="#ff9933" fill-opacity="1" stroke="#000000" stroke-width="0" stroke-linejoin="round" stroke-opacity="0">
<path d="M944 1778 L906 1600 Q894 1547 885.5 1525 Q877 1503 862.5 1481 Q848 1459 842.5 1446 Q837 1433 842 1424 Q847 1415 878 1417 Q893 1419 909 1423 L966 1439 Q1002 1448.5 984 1512 L1027 1770 Q999.5 1851 944 1778 Z" id="t17"></path>
<path d="M966 1439 L1201 1406 L1375 1384 Q1387 1382 1451.5 1370.5 Q1516 1359 1537.5 1353.5 Q1559 1348 1570 1348 Q1583 1349 1608.5 1361.5 Q1634 1374 1661 1390 Q1688 1406 1702 1424 Q1716 1442 1715 1453 Q1713 1462 1697 1479.5 Q1681 1497 1666.5 1519 Q1652 1541 1643 1567 L1592 1711 Q1521 1807.5 1502 1722 L1542 1525 Q1547 1499 1547.5 1477.5 Q1548 1456 1540 1449 Q1532 1442 1512 1442 Q1501 1443 1473 1445.5 Q1445 1448 1425 1448 L1401 1449 L1314 1457 L1287 1459 Q1229 1466 1210 1468 L1185 1471 L1090 1485 Q1046 1493 1039 1495 L984 1512 Q905 1475.5 966 1439 Z" id="t18"></path>
<path d="M1139 1759 L1123 1644 Q1113 1574 1109.5 1558 Q1106 1542 1098 1512 L1090 1485 Q1130.5 1438 1185 1471 Q1198 1484 1200 1490.5 Q1202 1497 1201 1509 Q1199 1521 1197 1550 Q1195 1579 1194 1599.5 Q1193 1620 1195 1655 L1198 1751 Q1168.5 1791 1139 1759 Z" id="t19"></path>
<path d="M1285 1743 Q1289 1714 1292 1699 L1297 1664 Q1297 1658 1308.5 1590.5 Q1320 1523 1318 1503 L1314 1457 Q1346.5 1416 1401 1449 Q1429 1472 1428.5 1480.5 Q1428 1489 1418.5 1505.5 Q1409 1522 1398 1559 L1381 1609 L1346 1737 Q1289.5 1787 1285 1743 Z" id="t20"></path>
<path d="M1592 1711 Q1633 1706 1666 1702 Q1699 1698 1727.5 1692.5 Q1756 1687 1770 1688 Q1786 1690 1814 1701.5 Q1842 1713 1864.5 1724.5 Q1887 1736 1899.5 1752 Q1912 1768 1909 1776.5 Q1906 1785 1890 1787 L1841 1793 Q1830 1795 1790 1794.5 Q1750 1794 1673 1799 L1468 1808 L1288 1821 L1078 1835 Q994 1843 926.5 1854.5 Q859 1866 817.5 1877.5 Q776 1889 758 1886 Q745 1885 727 1876 L677 1851 Q653 1840 643.5 1828 Q634 1816 639 1807 Q644 1798 665 1797 L720 1796 Q748 1796 807.5 1790 Q867 1784 905 1781 L944 1778 L1027 1770 L1139 1759 L1198 1751 L1285 1743 L1346 1737 L1502 1722 L1592 1711 Z" id="t21"></path>
</g>
<text class="number" style="font-size:100px;font-style:bold;" x="290" y="496">1</text>
<text class="number" style="font-size:100px;font-style:bold;" x="243" y="518">2</text>
<text class="number" style="font-size:100px;font-style:bold;" x="373" y="820">3</text>
<text class="number" style="font-size:100px;font-style:bold;" x="360" y="1030">4</text>
<text class="number" style="font-size:100px;font-style:bold;" x="335" y="1297">5</text>
<text class="number" style="font-size:100px;font-style:bold;" x="420" y="1375">6</text>
<text class="number" style="font-size:100px;font-style:bold;" x="571" y="1420">7</text>
<text class="number" style="font-size:100px;font-style:bold;" x="923" y="533">8</text>
<text class="number" style="font-size:100px;font-style:bold;" x="830" y="733">9</text>
<text class="number" style="font-size:100px;font-style:bold;" x="966" y="907">10</text>
<text class="number" style="font-size:100px;font-style:bold;" x="1216" y="183">11</text>
<text class="number" style="font-size:100px;font-style:bold;" x="924" y="1118">12</text>
<text class="number" style="font-size:100px;font-style:bold;" x="933" y="1093">13</text>
<text class="number" style="font-size:100px;font-style:bold;" x="1066" y="1216">14</text>
<text class="number" style="font-size:100px;font-style:bold;" x="1293" y="1169">15</text>
<text class="number" style="font-size:100px;font-style:bold;" x="1533" y="1172">16</text>
<text class="number" style="font-size:100px;font-style:bold;" x="899" y="1440">17</text>
<text class="number" style="font-size:100px;font-style:bold;" x="966" y="1480">18</text>
<text class="number" style="font-size:100px;font-style:bold;" x="1146" y="1496">19</text>
<text class="number" style="font-size:100px;font-style:bold;" x="1380" y="1446">20</text>
<text class="number" style="font-size:100px;font-style:bold;" x="696" y="1830">21</text>

<circle cx="0" cy="0" r="120" style="fill:#ff0000a0;"><animateMotion path="M290 496 L287 983 L279 1356 M243 518 L492 406 L613 375 L680 433 L657 1347 M373 820 L610 773 M360 1030 L570 1010 M335 1297 L587 1297 M420 1375 L140 1789 M571 1420 L725 1621 M923 533 L1496 413 L1630 483 L1486 820 M830 733 L1240 683 L1910 640 M966 907 L1539 837 M1216 183 L1222 483 L1220 796 L1220 1033 M924 1118 L824 1346 M933 1093 L1223 1073 L1576 1036 M1066 1216 L1126 1326 M1293 1169 L1392 1300 M1533 1172 L1710 1319 M899 1440 L983 1763 M966 1480 L1266 1416 L1570 1349 L1700 1433 L1534 1746 M1146 1496 L1169 1766 M1380 1446 L1303 1754 M696 1830 L1150 1796 L1490 1770 L1880 1763" begin="0s" dur="25s" repeatCount="indefinite"></animateMotion></circle>
</svg>